<?xml version="1.0" encoding="UTF-8" standalone="no"?>
<svg
   width="800"
   height="600"
   version="1.1"
   id="svg539"
   sodipodi:docname="diagram.svg"
   inkscape:version="1.1.2 (0a00cf5339, 2022-02-04)"
   inkscape:export-filename="/home/petro/Projects/apps/life_sim/diagram.png"
   inkscape:export-xdpi="96"
   inkscape:export-ydpi="96"
   xmlns:inkscape="http://www.inkscape.org/namespaces/inkscape"
   xmlns:sodipodi="http://sodipodi.sourceforge.net/DTD/sodipodi-0.dtd"
   xmlns="http://www.w3.org/2000/svg"
   xmlns:svg="http://www.w3.org/2000/svg">
  <defs
     id="defs543" />
  <sodipodi:namedview
     id="namedview541"
     pagecolor="#ffffff"
     bordercolor="#666666"
     borderopacity="1.0"
     inkscape:pageshadow="2"
     inkscape:pageopacity="0.0"
     inkscape:pagecheckerboard="0"
     showgrid="false"
     inkscape:zoom="1.28"
     inkscape:cx="145.70312"
     inkscape:cy="283.59375"
     inkscape:window-width="1912"
     inkscape:window-height="1048"
     inkscape:window-x="0"
     inkscape:window-y="0"
     inkscape:window-maximized="1"
     inkscape:current-layer="svg539"
     showguides="true"
     inkscape:guide-bbox="true">
    <sodipodi:guide
       position="-27199.31,-395.53833"
       orientation="0,-1"
       id="guide49" />
  </sodipodi:namedview>
  <text
     x="33.5"
     y="419.5"
     font-family="Times New Roman"
     font-size="20"
     id="text443">Work</text>
  <text
     x="128.5"
     y="178.5"
     font-family="Times New Roman"
     font-size="20"
     id="text447">Rest</text>
  <text
     x="564.5"
     y="107.5"
     font-family="Times New Roman"
     font-size="20"
     id="text451">Food</text>
  <text
     x="206.5"
     y="425.5"
     font-family="Times New Roman"
     font-size="20"
     id="text455">Education</text>
  <text
     x="378.5"
     y="387.5"
     font-family="Times New Roman"
     font-size="20"
     id="text459">Commute</text>
  <text
     x="162.5"
     y="291.5"
     font-family="Times New Roman"
     font-size="20"
     id="text463">Clear non-work events</text>
  <text
     x="306.5"
     y="215.5"
     font-family="Times New Roman"
     font-size="20"
     id="text467">Day ended</text>
  <text
     x="375.5"
     y="557.5"
     font-family="Times New Roman"
     font-size="20"
     id="text471">Push random event onto queue</text>
  <polygon
     stroke="black"
     stroke-width="1"
     points="69.199,385.473 139.801,200.527"
     id="polygon473" />
  <polygon
     fill="black"
     stroke-width="1"
     points="139.801,200.527 132.276,206.218 141.619,209.784"
     id="polygon475" />
  <text
     x="39.5"
     y="290.5"
     font-family="Times New Roman"
     font-size="20"
     id="text477">100%</text>
  <path
     stroke="#000000"
     stroke-width="0.991703"
     fill="none"
     d="M 172.98133,152.68318 A 386.50413,364.15405 0 0 1 554.60949,94.397993"
     id="path479" />
  <polygon
     fill="#000000"
     stroke-width="1"
     points="551.635,91.619 560.889,89.786 555.186,82.271 "
     id="polygon481"
     transform="matrix(0.98384909,0,0,0.92695679,2.7793648,11.170251)" />
  <text
     x="315.5"
     y="57.5"
     font-family="Times New Roman"
     font-size="20"
     id="text483">100%</text>
  <polygon
     stroke="black"
     stroke-width="1"
     points="402.135,365.48 300.865,301.52"
     id="polygon485" />
  <polygon
     fill="black"
     stroke-width="1"
     points="300.865,301.52 304.959,310.019 310.299,301.564"
     id="polygon487" />
  <text
     x="356.5"
     y="324.5"
     font-family="Times New Roman"
     font-size="20"
     id="text489">100%</text>
  <polygon
     stroke="black"
     stroke-width="1"
     points="249.66,300.742 84.34,398.258"
     id="polygon491" />
  <polygon
     fill="black"
     stroke-width="1"
     points="84.34,398.258 93.771,398.5 88.69,389.887"
     id="polygon493" />
  <text
     x="171.5"
     y="370.5"
     font-family="Times New Roman"
     font-size="20"
     id="text495">100%</text>
  <polygon
     stroke="black"
     stroke-width="1"
     points="260.712,389.797 271.288,315.203"
     id="polygon497" />
  <polygon
     fill="black"
     stroke-width="1"
     points="271.288,315.203 265.215,322.422 275.116,323.826"
     id="polygon499" />
  <text
     x="272.5"
     y="360.5"
     font-family="Times New Roman"
     font-size="20"
     id="text501">100%</text>
  <polygon
     stroke="black"
     stroke-width="1"
     points="338.136,229.496 297.864,265.504"
     id="polygon503" />
  <polygon
     fill="black"
     stroke-width="1"
     points="297.864,265.504 307.161,263.899 300.495,256.444"
     id="polygon505" />
  <text
     x="255.5"
     y="238.5"
     font-family="Times New Roman"
     font-size="20"
     id="text507">100%</text>
  <path
     stroke="#000000"
     stroke-width="1"
     fill="none"
     d="M 437.32617,531.23839 A 467.35828,584.09139 0 0 1 280.23606,437.68281"
     id="path509" />
  <polygon
     fill="black"
     stroke-width="1"
     points="280.299,437.761 283.801,446.521 289.708,438.452"
     id="polygon511" />
  <text
     x="267.77295"
     y="506.75195"
     font-family="'Times New Roman'"
     font-size="20px"
     id="text513">Queue &lt; 5</text>
  <path
     stroke="#000000"
     stroke-width="1"
     fill="none"
     d="M 373.9602,556.42316 A 375.65468,542.51463 0 0 1 80.818042,433.42793"
     id="path515" />
  <polygon
     fill="black"
     stroke-width="1"
     points="80.876,433.477 83.763,442.458 90.214,434.817"
     id="polygon517" />
  <text
     x="166.24438"
     y="548.0011"
     font-family="'Times New Roman'"
     font-size="20px"
     id="text519">80%</text>
  <polygon
     stroke="#000000"
     stroke-width="1"
     points="443.373,406.957 517.627,526.043 "
     id="polygon521"
     transform="matrix(0.58275422,0,0,1.0802382,184.88906,-32.728369)" />
  <polygon
     fill="black"
     stroke-width="1"
     points="443.373,406.957 443.363,416.391 451.849,411.1"
     id="polygon523" />
  <text
     x="486.5"
     y="459.5"
     font-family="Times New Roman"
     font-size="20"
     id="text525">30%</text>
  <path
     stroke="black"
     stroke-width="1"
     fill="none"
     d="M 179.013,163.214 A 295.732,295.732 0 0 1 542.486,522.891"
     id="path527" />
  <polygon
     fill="black"
     stroke-width="1"
     points="179.013,163.214 188.041,165.953 185.431,156.299"
     id="polygon529" />
  <text
     x="469.5"
     y="229.5"
     font-family="Times New Roman"
     font-size="20"
     id="text531">22 PM &lt; time &lt; 4 AM</text>
  <path
     stroke="#000000"
     stroke-width="1"
     fill="none"
     d="M 611.293,120.981 A 262.481,259.36404 0 0 1 560.314,533.12893"
     id="path533" />
  <polygon
     fill="black"
     stroke-width="1"
     points="611.293,120.981 613.607,130.127 620.528,122.909"
     id="polygon535" />
  <text
     x="696.5"
     y="349.5"
     font-family="Times New Roman"
     font-size="20"
     id="text537">40%</text>
  <rect
     style="fill:#0000ff;fill-opacity:0;stroke:#000000;stroke-opacity:1"
     id="rect2458"
     width="18891.406"
     height="2033.5938"
     x="3059.375"
     y="3328.125" />
  <rect
     style="fill:#0000ff;fill-opacity:0;stroke:#000000;stroke-opacity:1"
     id="rect2460"
     width="6120.7031"
     height="621.48438"
     x="3059.375"
     y="4740.2344" />
  <rect
     style="fill:#0000ff;fill-opacity:0;stroke:#000000"
     id="rect233"
     width="64.249641"
     height="41.817734"
     x="25.964355"
     y="392.99927" />
  <rect
     style="fill:#0000ff;fill-opacity:0;stroke:#000000"
     id="rect235"
     width="63.665771"
     height="26.583862"
     x="113.96179"
     y="161.69739" />
  <rect
     style="fill:#0000ff;fill-opacity:0;stroke:#000000"
     id="rect237"
     width="221.58203"
     height="36.99646"
     x="143.0542"
     y="264.48059" />
  <rect
     style="fill:#0000ff;fill-opacity:0;stroke:#000000"
     id="rect241"
     width="94.332886"
     height="35.345459"
     x="301.98669"
     y="189.71558" />
  <rect
     style="fill:#0000ff;fill-opacity:0;stroke:#000000"
     id="rect243"
     width="56.344604"
     height="25.753784"
     x="558.04138"
     y="89.624023" />
  <rect
     style="fill:#0000ff;fill-opacity:0;stroke:#000000"
     id="rect245"
     width="255.44434"
     height="35.159302"
     x="373.98376"
     y="533.70056" />
  <rect
     style="fill:#0000ff;fill-opacity:0;stroke:#000000"
     id="rect351"
     width="90.652466"
     height="30.917358"
     x="369.94934"
     y="365.94238" />
  <rect
     style="fill:#0000ff;fill-opacity:0;stroke:#000000"
     id="rect353"
     width="84.529167"
     height="38.567966"
     x="205.17883"
     y="399.88403" />
</svg>
